<?xml version="1.0" standalone="no"?>
<!DOCTYPE svg PUBLIC "-//W3C//DTD SVG 20010904//EN"
 "http://www.w3.org/TR/2001/REC-SVG-20010904/DTD/svg10.dtd">
<svg version="1.0" xmlns="http://www.w3.org/2000/svg"
 width="2109.000000pt" height="441.000000pt" viewBox="0 0 2109.000000 441.000000"
 preserveAspectRatio="xMidYMid meet">

<g transform="translate(0.000000,441.000000) scale(0.100000,-0.100000)"
fill="#000000" stroke="none">
<path d="M15008 4313 c-13 -15 -14 -39 -10 -130 l5 -113 27 0 c16 0 37 -3 47
-7 10 -3 15 -3 11 2 -4 4 -1 14 7 22 11 10 15 39 15 103 0 116 -9 140 -53 140
-20 0 -40 -7 -49 -17z"/>
<path d="M13886 4025 c-12 -13 -15 -26 -10 -53 4 -21 11 -40 16 -43 11 -7 35
-46 44 -71 3 -10 10 -18 14 -18 5 0 11 -13 15 -29 9 -42 75 -56 75 -15 0 8 4
14 8 14 12 0 2 62 -13 80 -7 8 -16 30 -20 47 -3 18 -13 36 -20 40 -7 5 -15 19
-17 33 -2 21 -9 26 -39 28 -24 2 -42 -3 -53 -13z"/>
<path d="M16126 4024 c-9 -8 -16 -24 -16 -35 0 -10 -4 -19 -10 -19 -5 0 -12
-11 -16 -25 -3 -14 -10 -25 -15 -25 -5 0 -9 -6 -9 -14 0 -7 -7 -19 -15 -26
-21 -18 -19 -73 4 -94 24 -22 53 -14 71 19 7 14 17 25 21 25 5 0 6 6 3 13 -2
7 5 23 16 35 11 12 18 22 14 22 -4 0 2 10 14 23 12 13 19 26 16 30 -4 4 -1 13
6 22 7 9 9 22 5 32 -5 10 -7 21 -7 26 3 14 -67 7 -82 -9z"/>
<path d="M14576 3672 c-3 -5 -40 -12 -83 -14 -43 -3 -79 -10 -81 -16 -2 -6
-19 -14 -37 -18 -19 -3 -39 -12 -46 -20 -6 -8 -19 -14 -29 -14 -10 0 -20 -7
-24 -15 -3 -8 -15 -15 -26 -15 -11 0 -20 -7 -20 -15 0 -8 -4 -15 -10 -15 -14
0 -50 -32 -50 -45 0 -6 -13 -24 -30 -40 -16 -16 -30 -34 -30 -41 0 -6 -7 -14
-15 -18 -8 -3 -15 -17 -15 -31 0 -14 -4 -25 -10 -25 -5 0 -7 -6 -4 -14 3 -8 1
-17 -5 -21 -6 -3 -11 -16 -11 -29 0 -30 -22 -74 -40 -80 -8 -3 -23 -10 -32
-16 -46 -26 -55 -31 -80 -41 -16 -6 -28 -16 -28 -23 0 -11 -25 -28 -62 -42
-10 -3 -18 -12 -18 -19 0 -6 -9 -20 -20 -30 -11 -10 -20 -23 -20 -29 0 -6 -11
-19 -24 -29 -13 -10 -27 -30 -31 -44 -3 -14 -13 -32 -20 -40 -8 -8 -15 -30
-15 -49 0 -19 -4 -34 -10 -34 -6 0 -10 -45 -10 -116 l0 -116 -45 -45 c-25 -24
-45 -48 -45 -54 0 -5 -9 -20 -21 -32 -11 -12 -32 -46 -46 -74 -15 -29 -30 -53
-35 -53 -4 0 -8 -6 -8 -14 0 -7 -6 -19 -14 -25 -7 -6 -16 -32 -19 -58 -3 -26
-10 -49 -16 -51 -6 -2 -11 -11 -11 -20 0 -9 -7 -30 -16 -47 -10 -18 -19 -64
-22 -112 -2 -46 -8 -83 -13 -83 -13 0 -11 -204 1 -216 6 -6 13 -44 15 -84 3
-41 10 -77 16 -81 6 -3 13 -25 16 -47 3 -23 12 -47 19 -53 8 -6 14 -24 14 -40
0 -16 5 -29 10 -29 6 0 10 -5 10 -11 0 -6 9 -22 20 -36 11 -14 20 -34 20 -45
0 -10 11 -29 24 -41 13 -12 27 -33 31 -47 4 -14 10 -27 14 -30 3 -3 11 -14 17
-24 6 -11 18 -24 28 -30 10 -6 65 -57 122 -113 74 -74 110 -103 127 -103 14 0
30 -7 37 -15 7 -8 19 -15 26 -15 8 0 14 -4 14 -9 0 -5 14 -12 30 -16 25 -5 30
-12 30 -35 0 -16 4 -32 10 -35 5 -3 12 -28 16 -55 4 -28 10 -50 14 -50 5 0 11
-14 15 -30 4 -17 10 -30 15 -30 4 0 10 -8 14 -17 3 -10 10 -25 15 -33 13 -20
25 -53 23 -62 -1 -5 2 -8 8 -8 5 0 10 -7 10 -15 0 -8 7 -15 15 -15 8 0 15 -7
15 -15 0 -8 6 -15 13 -15 7 0 17 -10 22 -23 6 -12 20 -26 32 -32 12 -5 24 -17
26 -27 3 -10 21 -25 40 -33 19 -8 44 -26 55 -40 11 -14 27 -25 36 -25 9 0 16
-4 16 -10 0 -5 9 -10 19 -10 11 0 26 -6 33 -14 8 -7 35 -16 61 -20 25 -4 49
-11 52 -15 2 -5 27 -11 55 -15 27 -4 50 -11 50 -16 0 -13 187 -13 195 -1 3 5
34 13 70 16 35 4 70 14 76 21 15 19 122 19 138 0 6 -7 34 -16 63 -19 28 -4 56
-11 62 -17 16 -16 219 -13 252 5 16 8 41 15 56 15 14 0 28 5 30 11 2 5 22 13
46 16 23 3 42 9 42 13 0 5 29 22 64 40 35 17 67 37 70 45 3 8 14 15 24 15 19
0 52 29 52 46 0 5 10 14 23 19 12 6 26 20 32 33 5 12 15 22 21 22 17 0 40 32
48 64 4 17 18 39 30 50 13 12 27 39 31 60 3 21 13 45 21 53 8 8 14 23 14 34 0
11 4 27 9 37 15 27 24 56 22 69 -2 12 45 53 62 53 5 0 25 14 44 30 18 16 39
30 44 30 15 0 64 40 143 117 36 34 74 66 85 73 12 6 21 17 21 26 0 8 19 35 41
59 23 25 38 45 35 45 -4 0 2 13 13 29 11 15 17 31 14 35 -4 3 4 16 16 27 21
20 40 56 47 87 1 8 10 22 18 31 9 10 14 20 11 22 -6 7 15 83 26 90 5 3 12 40
15 82 4 43 11 80 15 83 12 7 11 214 0 214 -5 0 -11 36 -13 80 -2 46 -8 84 -15
88 -11 7 -27 73 -25 105 0 9 -3 17 -7 17 -9 0 -24 38 -22 53 1 4 -3 7 -8 7 -8
0 -24 37 -22 53 1 4 -3 7 -7 7 -5 0 -17 18 -28 40 -10 22 -22 40 -26 40 -5 0
-8 6 -8 14 0 7 -7 19 -15 26 -9 7 -13 15 -10 18 2 3 -3 12 -13 21 -9 9 -22 25
-28 36 -6 11 -20 24 -31 29 -22 10 -33 76 -33 204 0 34 -4 62 -9 62 -4 0 -11
19 -14 41 -3 23 -10 45 -15 48 -5 3 -13 17 -17 30 -4 13 -18 34 -31 46 -13 12
-24 26 -24 31 0 14 -123 134 -137 134 -7 0 -16 7 -21 15 -4 9 -26 18 -47 22
-55 9 -81 36 -89 91 -4 26 -13 56 -21 66 -8 11 -15 30 -15 43 0 13 -6 26 -14
29 -8 3 -17 13 -20 22 -16 45 -112 152 -135 152 -6 0 -11 6 -11 14 0 17 -22
26 -61 26 -16 0 -29 5 -29 10 0 6 -5 10 -12 10 -6 0 -20 8 -31 18 -16 15 -40
17 -168 17 -105 0 -152 -4 -160 -12 -7 -7 -19 -13 -27 -13 -18 0 -106 -42
-110 -52 -2 -5 -9 -8 -16 -8 -12 0 -136 -123 -136 -135 0 -3 -9 -14 -20 -25
-26 -26 -56 -25 -71 3 -17 31 -101 127 -111 127 -5 0 -19 11 -32 25 -13 14
-30 25 -37 25 -8 0 -31 9 -52 20 -20 11 -46 20 -57 20 -11 0 -20 4 -20 9 0 5
-26 13 -57 17 -32 4 -61 11 -64 16 -4 7 -9 7 -13 0z m89 -112 c3 -5 15 -10 26
-10 72 0 234 -129 279 -222 31 -64 50 -148 50 -219 -1 -97 -33 -124 -87 -75
-15 14 -61 41 -102 61 -42 20 -83 40 -92 45 -23 12 -163 23 -188 15 -23 -7
-29 -43 -9 -63 7 -7 29 -12 49 -12 39 0 142 -30 199 -58 56 -27 128 -92 166
-150 56 -84 66 -133 60 -290 -3 -74 -8 -137 -11 -140 -9 -9 -5 -71 4 -77 10
-5 6 -504 -5 -694 -4 -60 -2 -97 5 -104 14 -14 14 -114 1 -122 -5 -3 -10 -21
-10 -40 0 -19 5 -37 10 -40 14 -9 13 -440 -1 -467 -10 -18 -17 -20 -62 -14
-118 15 -265 123 -336 247 -48 83 -50 106 -15 145 54 61 82 162 52 192 -21 21
-48 14 -59 -15 -25 -65 -55 -117 -74 -127 -10 -6 -26 -17 -34 -25 -11 -9 -39
-12 -105 -10 l-91 4 0 -35 c0 -34 1 -35 60 -52 33 -9 79 -17 101 -17 37 -1 43
-4 49 -28 8 -33 82 -145 124 -189 42 -44 110 -96 151 -116 86 -41 131 -58 155
-58 14 0 39 -7 54 -15 36 -18 39 -39 41 -300 l1 -200 -29 -29 c-17 -15 -47
-32 -68 -37 -50 -12 -288 -11 -334 0 -76 20 -158 56 -222 98 -66 43 -158 128
-158 145 0 6 -15 28 -33 51 -53 68 -107 226 -107 316 0 52 -14 108 -33 139
-15 22 -37 12 -52 -24 -13 -32 -18 -35 -41 -30 -75 19 -265 186 -343 301 -75
110 -132 236 -147 320 -4 22 -11 46 -17 53 -15 19 -15 362 0 393 6 13 14 45
18 71 3 26 10 50 16 53 5 4 9 14 9 25 0 28 86 193 131 249 22 28 48 51 58 51
11 0 33 -23 59 -64 45 -69 56 -80 88 -90 23 -7 54 15 54 39 0 7 -18 35 -40 61
-37 45 -70 118 -100 220 -19 65 1 178 50 278 39 81 170 196 223 196 17 0 26
-9 35 -33 7 -18 12 -42 12 -53 0 -31 38 -84 59 -84 38 0 40 15 19 152 -34 230
92 426 327 506 39 13 202 15 210 2z m1005 -4 c128 -40 225 -123 285 -241 37
-74 37 -78 38 -189 0 -117 -2 -124 -51 -225 -52 -107 -224 -221 -333 -221 -65
-1 -89 -16 -89 -58 0 -40 25 -47 107 -33 122 23 209 66 297 150 54 52 111 134
122 177 4 15 13 39 20 53 8 14 14 36 14 48 0 64 37 69 116 17 49 -32 124 -110
124 -128 0 -3 11 -23 24 -44 32 -52 62 -205 48 -246 -6 -17 -14 -51 -17 -75
-8 -47 -49 -123 -97 -179 -15 -18 -28 -37 -28 -42 0 -27 15 -40 45 -40 35 0
66 31 111 108 21 37 61 44 87 15 34 -39 85 -124 108 -179 13 -33 27 -60 32
-62 4 -2 7 -13 7 -23 0 -11 5 -29 11 -40 31 -58 42 -138 43 -299 1 -203 -9
-255 -83 -411 -17 -37 -31 -69 -31 -72 0 -4 -21 -39 -47 -79 -58 -90 -198
-233 -277 -283 -53 -34 -61 -36 -83 -24 -13 7 -29 24 -36 38 -16 35 -61 41
-77 11 -7 -12 -9 -38 -5 -58 11 -72 -37 -286 -84 -371 -55 -98 -204 -240 -291
-277 -109 -45 -144 -56 -214 -63 -103 -10 -274 2 -315 23 -17 9 -35 25 -41 35
-6 12 -10 113 -10 255 0 223 1 237 20 256 13 13 34 20 58 20 20 1 55 9 77 20
22 11 46 19 53 20 20 0 143 88 180 129 38 41 74 93 113 166 21 40 32 51 55 53
16 1 59 10 97 18 74 18 96 39 77 74 -10 19 -17 20 -95 14 -85 -7 -86 -7 -134
26 -42 29 -50 40 -56 76 -6 46 -38 87 -63 82 -9 -2 -23 -15 -31 -30 -13 -22
-13 -31 -2 -55 35 -74 56 -113 63 -113 4 0 14 -12 22 -27 13 -25 11 -32 -22
-98 -40 -78 -154 -200 -197 -211 -14 -3 -25 -10 -25 -15 0 -5 -6 -9 -12 -9 -7
0 -25 -6 -39 -14 -43 -22 -114 -29 -128 -13 -9 11 -11 245 -9 948 l3 934 28
50 c36 65 117 150 167 176 22 12 42 25 45 29 3 5 20 11 38 15 17 4 51 13 75
21 23 8 58 14 76 14 45 0 72 30 56 61 -12 21 -16 21 -102 15 -49 -4 -97 -11
-106 -15 -9 -5 -47 -23 -83 -40 -36 -17 -81 -44 -100 -61 -43 -37 -66 -45 -86
-29 -13 11 -15 31 -10 119 6 111 15 146 59 221 32 54 142 157 178 166 14 4 31
12 38 20 7 7 26 13 42 13 16 0 32 5 35 10 9 15 163 12 215 -4z"/>
<path d="M14200 2780 c-14 -26 -1 -50 47 -87 61 -46 149 -83 239 -101 83 -16
85 -16 105 5 42 42 -1 83 -87 83 -52 0 -155 44 -215 90 -43 35 -74 38 -89 10z"/>
<path d="M14398 2131 c-94 -33 -190 -112 -204 -167 -7 -26 18 -64 40 -64 7 0
34 23 61 51 63 64 138 99 213 99 73 0 133 -29 198 -97 70 -72 104 -70 104 6 0
20 -14 42 -49 77 -102 102 -239 138 -363 95z"/>
<path d="M13858 1909 c-22 -12 -23 -44 -3 -83 17 -32 20 -126 5 -126 -5 0 -10
-6 -10 -13 0 -7 -10 -22 -22 -34 -13 -11 -40 -37 -62 -57 -36 -34 -37 -38 -23
-59 22 -34 58 -33 108 5 74 57 102 108 107 198 4 62 1 84 -17 122 -25 55 -47
68 -83 47z"/>
<path d="M15595 2140 c-3 -5 -14 -10 -23 -10 -41 0 -148 -75 -184 -129 -31
-46 -19 -101 22 -101 9 0 36 22 59 50 113 134 288 135 414 1 53 -56 66 -60 90
-33 30 33 21 62 -36 116 -52 50 -108 83 -178 105 -44 14 -156 14 -164 1z"/>
<path d="M16247 1903 c-25 -28 -47 -103 -46 -158 1 -118 140 -269 208 -226 23
14 16 63 -10 81 -13 8 -40 29 -59 47 -34 31 -35 33 -35 111 0 52 5 85 14 96
11 13 11 20 -3 41 -19 29 -46 32 -69 8z"/>
<path d="M7560 3590 c-14 -5 -99 -32 -190 -60 -219 -69 -474 -167 -641 -247
l-136 -65 -12 -81 c-6 -45 -14 -97 -18 -114 l-5 -33 103 50 c188 89 583 238
811 305 l87 26 25 110 c14 60 26 112 26 114 0 7 -21 5 -50 -5z"/>
<path d="M13066 3204 c-9 -8 -16 -19 -16 -24 0 -15 61 -80 75 -80 8 0 27 -12
44 -26 38 -32 141 -47 141 -21 0 8 5 17 12 19 15 5 -15 36 -67 68 -22 13 -42
27 -45 30 -4 5 -116 50 -125 50 -2 0 -11 -7 -19 -16z"/>
<path d="M16940 3196 c-25 -13 -68 -36 -97 -50 -28 -14 -54 -35 -58 -46 -3
-11 -11 -20 -17 -20 -6 0 -3 -9 7 -20 10 -11 24 -20 32 -20 7 0 13 -6 13 -12
0 -9 3 -10 8 -2 4 6 20 14 36 18 16 4 43 18 59 32 16 13 34 24 42 24 14 0 75
59 75 73 0 9 -40 46 -50 47 -3 0 -25 -11 -50 -24z"/>
<path d="M3900 3138 c-63 -5 -115 -10 -116 -11 -8 -10 59 -1332 70 -1403 44
-267 171 -405 408 -444 194 -31 374 12 484 117 25 25 47 43 48 41 82 -134 162
-177 305 -165 106 9 157 32 230 104 36 35 66 63 67 63 1 0 7 -13 14 -30 20
-49 92 -107 156 -126 129 -37 271 3 366 105 29 31 59 66 66 76 9 15 14 17 18
7 14 -30 72 -99 110 -127 77 -59 134 -70 364 -70 229 1 316 14 427 66 71 34
141 106 169 173 l18 44 106 -108 c59 -61 124 -118 149 -130 65 -33 164 -50
287 -50 322 0 566 67 604 166 21 53 40 175 40 254 0 163 -65 432 -148 610 -48
103 -31 99 -193 45 -79 -26 -147 -50 -151 -54 -3 -3 10 -35 31 -71 91 -162
151 -321 166 -444 l7 -56 -38 -17 c-50 -22 -395 -32 -458 -13 -74 22 -118 63
-271 255 -177 220 -334 395 -434 480 -38 33 -70 63 -70 66 -2 19 494 196 703
250 67 17 90 28 97 43 13 31 80 348 75 354 -8 7 -283 -77 -468 -144 -360 -130
-596 -244 -627 -303 -6 -10 -17 -82 -25 -162 -9 -79 -18 -161 -20 -182 -4 -37
-3 -39 109 -132 179 -150 332 -324 351 -399 8 -33 -15 -70 -58 -92 -56 -29
-175 -43 -369 -44 -185 0 -187 0 -240 28 -42 22 -58 38 -79 77 -22 44 -25 61
-25 158 l0 108 -35 -5 c-19 -3 -74 -8 -123 -12 -78 -6 -88 -9 -92 -28 -28
-139 -41 -184 -66 -236 -40 -78 -84 -110 -154 -110 -92 0 -122 48 -111 177 4
40 9 80 13 88 4 13 -9 15 -80 15 -105 0 -178 -10 -182 -24 -41 -153 -74 -214
-129 -240 -19 -9 -59 -16 -89 -16 -66 0 -100 26 -118 91 -11 42 -4 127 17 197
6 22 5 22 -92 22 -55 0 -115 -3 -135 -6 -34 -6 -36 -8 -53 -75 -22 -87 -65
-144 -131 -178 -45 -24 -61 -26 -165 -26 -104 0 -119 2 -160 25 -24 14 -55 40
-67 59 -49 72 -52 104 -78 741 -14 333 -25 613 -25 623 0 20 -13 20 -200 5z"/>
<path d="M8666 3138 c-61 -5 -111 -10 -112 -11 -2 -2 73 -1842 76 -1854 0 -2
70 -3 155 -3 l155 0 0 53 c0 28 -16 432 -35 897 -19 465 -35 864 -35 888 l0
42 -47 -1 c-27 -1 -97 -6 -157 -11z"/>
<path d="M5303 3079 c-127 -38 -154 -250 -42 -330 28 -20 46 -24 101 -24 72 0
102 14 142 68 38 51 37 174 -3 227 -39 53 -129 80 -198 59z"/>
<path d="M7754 3001 c-52 -23 -82 -66 -96 -133 -18 -89 20 -176 93 -213 38
-20 133 -19 176 2 95 45 123 207 51 299 -47 59 -148 80 -224 45z"/>
<path d="M5087 2696 c-50 -18 -76 -42 -98 -91 -58 -126 25 -265 157 -265 157
0 233 199 121 318 -47 49 -110 63 -180 38z"/>
<path d="M5516 2700 c-69 -22 -116 -97 -116 -185 0 -169 213 -238 314 -102 38
51 37 174 -3 227 -38 53 -130 81 -195 60z"/>
<path d="M9877 2388 c-119 -15 -256 -110 -321 -221 -140 -238 -79 -551 135
-687 85 -55 178 -81 311 -87 l118 -6 -27 -51 c-40 -76 -164 -195 -244 -233
-110 -54 -175 -66 -329 -60 -126 5 -169 13 -290 53 -13 4 -20 -18 -40 -115
l-24 -121 29 -31 c35 -36 167 -101 245 -120 32 -8 107 -14 180 -14 114 1 133
4 213 32 125 44 190 86 292 188 139 139 227 307 277 529 24 108 29 343 10 446
-68 351 -265 534 -535 498z m120 -334 c61 -38 114 -108 141 -187 39 -109 41
-107 -91 -107 -212 0 -307 58 -307 187 0 129 132 184 257 107z"/>
<path d="M11220 2264 c-80 -36 -147 -68 -149 -70 -2 -2 22 -57 54 -121 109
-224 181 -421 205 -564 10 -57 9 -76 -6 -129 -49 -176 -224 -325 -393 -338
-83 -6 -188 12 -261 43 -30 13 -57 22 -58 20 -2 -2 -12 -61 -22 -132 l-17
-128 39 -38 c79 -76 197 -117 333 -118 163 0 293 59 430 196 169 170 256 402
241 645 -12 200 -87 472 -191 688 -30 61 -55 112 -57 112 -2 -1 -68 -30 -148
-66z"/>
</g>
</svg>
