<?xml version="1.0" encoding="UTF-8"?>
<!DOCTYPE svg PUBLIC "-//W3C//DTD SVG 1.1//EN" "http://www.w3.org/Graphics/SVG/1.1/DTD/svg11.dtd">
<svg xmlns="http://www.w3.org/2000/svg" version="1.1" width="533px" height="441px" style="shape-rendering:geometricPrecision; text-rendering:geometricPrecision; image-rendering:optimizeQuality; fill-rule:evenodd; clip-rule:evenodd" xmlns:xlink="http://www.w3.org/1999/xlink">
<g><path style="opacity:0.731" fill="#4f76f5" d="M 266.5,5.5 C 269.421,5.14591 271.754,6.14591 273.5,8.5C 275.012,18.9618 274.679,29.2951 272.5,39.5C 268.019,39.3308 263.853,38.3308 260,36.5C 259.489,28.473 259.156,20.473 259,12.5C 259.219,11.062 259.719,9.72865 260.5,8.5C 262.604,7.48052 264.604,6.48052 266.5,5.5 Z"/></g>
<g><path style="opacity:0.698" fill="#4f76f5" d="M 148.5,35.5 C 152.582,35.3436 156.582,35.8436 160.5,37C 160.167,37.3333 159.833,37.6667 159.5,38C 161.102,39.9347 162.269,42.1013 163,44.5C 164.747,47.7248 166.914,50.7248 169.5,53.5C 169.311,56.9851 169.311,60.6518 169.5,64.5C 168.5,64.5 167.5,64.5 166.5,64.5C 166.762,65.9778 166.429,67.3112 165.5,68.5C 163.224,67.7868 160.891,67.2868 158.5,67C 159.167,66.6667 159.833,66.3333 160.5,66C 158.221,65.5272 156.221,64.5272 154.5,63C 154.833,62.6667 155.167,62.3333 155.5,62C 151.753,56.4823 148.42,51.1489 145.5,46C 146.573,44.7496 146.573,43.4162 145.5,42C 146.377,39.7473 147.377,37.5806 148.5,35.5 Z"/></g>
<g><path style="opacity:0.691" fill="#4f76f5" d="M 373.5,35.5 C 377.015,35.7121 380.348,35.7121 383.5,35.5C 384.711,36.2739 384.711,37.1072 383.5,38C 386.306,39.3051 387.14,41.4718 386,44.5C 381.804,52.6899 377.971,60.1899 374.5,67C 371.776,67.2695 369.109,67.7695 366.5,68.5C 364.512,67.7112 364.179,66.5445 365.5,65C 364.552,64.5172 363.552,64.3505 362.5,64.5C 362.356,60.6255 362.69,56.7921 363.5,53C 366.367,47.2019 369.701,41.3685 373.5,35.5 Z"/></g>
<g><path style="opacity:0.785" fill="#4f76f5" d="M 348.5,82.5 C 349.209,83.404 350.209,83.7373 351.5,83.5C 351.5,84.5 351.5,85.5 351.5,86.5C 354.522,86.3419 356.522,87.6752 357.5,90.5C 356.167,90.8333 356.167,91.1667 357.5,91.5C 361.844,95.36 365.011,100.027 367,105.5C 367.333,105.167 367.667,104.833 368,104.5C 368.129,107.003 369.129,109.003 371,110.5C 370.041,117.184 372.541,121.851 378.5,124.5C 380.477,123.812 382.477,124.145 384.5,125.5C 384.291,126.086 383.957,126.586 383.5,127C 387.51,128.494 391.177,130.661 394.5,133.5C 397.845,137.522 401.178,141.522 404.5,145.5C 411.585,158.039 414.251,171.705 412.5,186.5C 414.103,186.312 415.437,186.812 416.5,188C 416.167,188.333 415.833,188.667 415.5,189C 415.802,190.655 417.136,191.988 419.5,193C 418.346,193.914 418.513,194.747 420,195.5C 420.333,195.167 420.667,194.833 421,194.5C 421.574,196.492 422.741,197.992 424.5,199C 423.833,199.333 423.167,199.667 422.5,200C 426.825,202.118 428.825,205.618 428.5,210.5C 429.552,210.351 430.552,210.517 431.5,211C 433.302,218.567 436.135,226.067 440,233.5C 440.72,235.112 440.554,236.612 439.5,238C 440.701,238.903 441.535,240.069 442,241.5C 442.667,256.833 442.667,272.167 442,287.5C 438.437,296.388 435.27,305.054 432.5,313.5C 429.383,316.479 427.383,320.146 426.5,324.5C 418.767,334.092 410.101,343.592 400.5,353C 395.363,357.075 389.696,360.408 383.5,363C 383.833,363.333 384.167,363.667 384.5,364C 382.655,365.128 380.655,365.628 378.5,365.5C 376.231,374.682 373.397,383.682 370,392.5C 369.667,392.167 369.333,391.833 369,391.5C 368,393.833 367,396.167 366,398.5C 360.324,405.34 354.491,412.007 348.5,418.5C 347.914,418.291 347.414,417.957 347,417.5C 344.793,419.673 342.46,421.673 340,423.5C 336.172,424.857 332.672,426.69 329.5,429C 326.313,429.001 323.48,429.834 321,431.5C 320.667,431.167 320.333,430.833 320,430.5C 317.834,432.121 315.334,432.955 312.5,433C 312.833,433.333 313.167,433.667 313.5,434C 304.167,434.667 294.833,434.667 285.5,434C 279.261,432.295 272.928,430.795 266.5,429.5C 264.5,429.667 262.5,429.833 260.5,430C 260.833,430.333 261.167,430.667 261.5,431C 256.917,432.145 252.251,432.811 247.5,433C 247.833,433.333 248.167,433.667 248.5,434C 240.5,434.667 232.5,434.667 224.5,434C 218.049,431.793 211.382,430.127 204.5,429C 202.488,427.322 200.321,425.822 198,424.5C 196.467,423.305 194.967,423.305 193.5,424.5C 193.06,423.302 192.727,422.135 192.5,421C 188.576,419.031 184.91,416.698 181.5,414C 181.833,413.667 182.167,413.333 182.5,413C 179.962,411.641 177.629,409.974 175.5,408C 175.833,407.667 176.167,407.333 176.5,407C 169.778,401.214 165.444,394.047 163.5,385.5C 162.5,385.5 161.5,385.5 160.5,385.5C 160.78,380.128 159.447,374.962 156.5,370C 157.148,368.56 157.481,367.06 157.5,365.5C 153.911,365.081 150.577,363.914 147.5,362C 145.804,359.018 143.137,357.684 139.5,358C 139.833,357.667 140.167,357.333 140.5,357C 139.377,355.956 138.044,355.29 136.5,355C 137.654,354.086 137.487,353.253 136,352.5C 135.086,353.654 134.253,353.487 133.5,352C 128.189,347.385 123.023,341.885 118,335.5C 117.107,336.711 116.274,336.711 115.5,335.5C 114.948,332.221 113.281,329.721 110.5,328C 110.833,327.667 111.167,327.333 111.5,327C 109.947,325.903 108.614,324.57 107.5,323C 107.833,322.667 108.167,322.333 108.5,322C 106.873,318.452 104.539,315.452 101.5,313C 102.458,311.853 102.125,310.853 100.5,310C 100.957,309.586 101.291,309.086 101.5,308.5C 98.6383,301.916 95.9717,295.249 93.5,288.5C 94.2336,285.018 93.9003,281.518 92.5,278C 92.8858,273.207 92.8858,268.207 92.5,263C 92.7343,253.486 93.2343,243.986 94,234.5C 96.1152,230.812 98.1152,227.146 100,223.5C 100.332,220.494 101.166,217.66 102.5,215C 102.043,214.586 101.709,214.086 101.5,213.5C 102.5,212.833 103.5,212.167 104.5,211.5C 105.809,207.028 108.142,203.195 111.5,200C 111.043,199.586 110.709,199.086 110.5,198.5C 114.167,194.5 117.833,190.5 121.5,186.5C 122.045,174.939 123.212,163.939 125,153.5C 125.667,154.167 126.333,154.833 127,155.5C 127.645,152.441 128.478,149.441 129.5,146.5C 137.045,135.138 147.378,127.305 160.5,123C 160.167,122.667 159.833,122.333 159.5,122C 160.5,121.5 161.5,121 162.5,120.5C 163.209,114.945 164.875,109.779 167.5,105C 167.043,104.586 166.709,104.086 166.5,103.5C 167.685,102.147 169.019,100.98 170.5,100C 170.167,99.6667 169.833,99.3333 169.5,99C 174.236,94.3196 178.569,89.9863 182.5,86C 182.167,85.6667 181.833,85.3333 181.5,85C 186.185,83.2607 190.518,80.9273 194.5,78C 202.198,75.3478 210.198,73.8478 218.5,73.5C 229.428,74.0094 239.761,76.6761 249.5,81.5C 251.331,84.0237 253.664,85.8571 256.5,87C 258.86,90.3049 261.694,93.8049 265,97.5C 265.483,98.448 265.649,99.448 265.5,100.5C 266.873,100.657 268.207,100.49 269.5,100C 269.043,99.586 268.709,99.086 268.5,98.5C 270.316,97.1851 271.983,95.6851 273.5,94C 273.167,93.6667 272.833,93.3333 272.5,93C 274.526,90.2134 276.86,88.5468 279.5,88C 279.167,87.6667 278.833,87.3333 278.5,87C 279.5,86.6667 280.5,86.3333 281.5,86C 280.167,85.3333 280.167,84.6667 281.5,84C 287.673,81.2739 293.673,78.4406 299.5,75.5C 309.384,73.7683 319.217,73.1016 329,73.5C 333.121,76.1403 337.288,78.307 341.5,80C 343.568,80.6869 345.568,80.5202 347.5,79.5C 348.293,80.3554 347.96,81.1887 346.5,82C 347.094,82.4643 347.761,82.631 348.5,82.5 Z M 208.5,88.5 C 233.464,85.3276 250.631,95.3276 260,118.5C 260.831,125.524 260.664,132.524 259.5,139.5C 248.858,130.472 236.025,125.139 221,123.5C 211.446,123.84 209.28,127.84 214.5,135.5C 215.941,136.304 217.441,136.971 219,137.5C 238.03,138.098 251.697,147.098 260,164.5C 260.5,226.832 260.667,289.166 260.5,351.5C 245.673,350.05 233.839,342.716 225,329.5C 223.285,326.732 222.118,323.732 221.5,320.5C 221.577,318.701 222.077,317.034 223,315.5C 227.205,312.253 229.538,307.92 230,302.5C 231.063,297.745 229.563,294.079 225.5,291.5C 223.465,292.041 221.465,292.708 219.5,293.5C 217.332,298.193 215.165,302.859 213,307.5C 211.921,309.394 210.587,309.727 209,308.5C 208.517,309.448 208.351,310.448 208.5,311.5C 203.108,312.629 197.941,311.963 193,309.5C 187.418,311.331 185.584,314.998 187.5,320.5C 189.131,322.297 191.131,323.464 193.5,324C 198.202,324.172 202.868,324.672 207.5,325.5C 217.916,347.902 235.249,361.902 259.5,367.5C 260.833,383.5 260.833,399.5 259.5,415.5C 258.692,415.808 258.025,416.308 257.5,417C 229.591,424.882 205.757,418.382 186,397.5C 183.734,393.234 181.068,389.234 178,385.5C 176.179,380.708 174.345,375.875 172.5,371C 171.812,362.767 170.645,354.6 169,346.5C 166.681,342.885 163.515,341.885 159.5,343.5C 158.05,344.85 157.383,346.516 157.5,348.5C 155.94,348.481 154.44,348.148 153,347.5C 118.486,324.351 103.153,291.351 107,248.5C 109.656,231.549 116.656,215.883 128,201.5C 131.673,206.666 135.506,211.666 139.5,216.5C 147.598,219.291 151.264,216.624 150.5,208.5C 132.245,187.45 131.912,166.283 149.5,145C 152.805,142.189 156.472,140.022 160.5,138.5C 161.442,138.608 162.275,138.941 163,139.5C 163.927,144.313 165.093,148.98 166.5,153.5C 169.224,153.534 171.224,154.201 172.5,155.5C 175.036,155.131 176.869,153.797 178,151.5C 178.021,144.171 177.188,137.004 175.5,130C 177.166,108.523 188.166,94.69 208.5,88.5 Z M 306.5,88.5 C 313.508,88.3337 320.508,88.5004 327.5,89C 347.959,96.0146 358.626,110.515 359.5,132.5C 357.463,150.094 348.463,162.594 332.5,170C 325.602,170.782 318.935,172.282 312.5,174.5C 309.445,178.976 310.112,182.81 314.5,186C 326.895,186.636 338.229,183.469 348.5,176.5C 354.938,171.376 360.438,166.042 365,160.5C 368.426,152.994 371.259,145.328 373.5,137.5C 387.136,143.911 394.969,154.577 397,169.5C 397.333,169.167 397.667,168.833 398,168.5C 399.303,182.313 395.803,194.646 387.5,205.5C 386.675,206.386 385.675,206.719 384.5,206.5C 382.849,215.852 386.515,219.186 395.5,216.5C 399.195,212.281 402.528,207.781 405.5,203C 406.5,202.333 407.5,202.333 408.5,203C 428.203,229.953 433.703,259.786 425,292.5C 418.987,309.099 409.821,323.599 397.5,336C 394.122,338.395 390.789,340.729 387.5,343C 387.833,343.333 388.167,343.667 388.5,344C 385.29,344.395 382.79,345.895 381,348.5C 378.602,346.82 377.435,344.486 377.5,341.5C 375.406,340.758 373.239,340.091 371,339.5C 369.284,339.748 367.784,340.415 366.5,341.5C 365.911,356.964 362.744,371.631 357,385.5C 343.98,407.5 324.647,419.167 299,420.5C 292.332,419.149 285.499,418.315 278.5,418C 277.646,416.978 276.646,416.145 275.5,415.5C 274.501,398.847 274.167,382.18 274.5,365.5C 292.29,363.638 306.623,355.638 317.5,341.5C 320.357,336.91 323.024,332.244 325.5,327.5C 330.662,325.052 336.162,323.718 342,323.5C 349.522,318.259 349.189,313.592 341,309.5C 336.743,311.919 332.243,312.586 327.5,311.5C 324.597,309.59 321.764,307.59 319,305.5C 319.019,300.892 317.519,296.892 314.5,293.5C 308.435,291.255 304.768,293.255 303.5,299.5C 304.292,307.055 307.458,313.388 313,318.5C 313.52,320.289 313.187,321.956 312,323.5C 304.255,338.889 291.921,348.556 275,352.5C 274.333,290.833 274.333,229.167 275,167.5C 276.553,162.727 278.386,158.06 280.5,153.5C 281.675,153.719 282.675,153.386 283.5,152.5C 286.353,148.813 289.686,145.647 293.5,143C 302.592,139.418 311.926,136.918 321.5,135.5C 322.757,132.156 322.757,128.823 321.5,125.5C 319.556,124.149 317.389,123.482 315,123.5C 300.061,124.609 286.894,129.942 275.5,139.5C 271.864,122.959 276.197,109.126 288.5,98C 291.368,97.1392 293.702,95.4725 295.5,93C 299.146,91.1191 302.813,89.6191 306.5,88.5 Z"/></g>
<g><path style="opacity:0.008" fill="#4f76f5" d="M 348.5,81.5 C 349.833,82.1667 349.833,82.1667 348.5,81.5 Z"/></g>
<g><path style="opacity:0.004" fill="#4f76f5" d="M 357.5,90.5 C 358.833,91.1667 358.833,91.1667 357.5,90.5 Z"/></g>
<g><path style="opacity:0.011" fill="#4f76f5" d="M 377.5,109.5 C 380.674,109.952 381.007,110.952 378.5,112.5C 377.614,111.675 377.281,110.675 377.5,109.5 Z"/></g>
<g><path style="opacity:0.685" fill="#4f76f5" d="M 72.5,117.5 C 80.0611,120.95 87.3945,124.95 94.5,129.5C 97.1855,139.316 93.5188,143.149 83.5,141C 80.0016,138.501 76.1682,136.668 72,135.5C 64.2743,130.674 62.7743,125.174 67.5,119C 69.3817,118.802 71.0484,118.302 72.5,117.5 Z"/></g>
<g><path style="opacity:0.684" fill="#4f76f5" d="M 458.5,117.5 C 459.802,118.807 461.135,118.807 462.5,117.5C 463.695,119.297 465.362,120.297 467.5,120.5C 467.665,123.518 467.498,126.518 467,129.5C 464.692,130.641 462.859,132.308 461.5,134.5C 456.619,135.607 452.286,137.774 448.5,141C 445.118,141.824 441.784,141.657 438.5,140.5C 435.986,138.443 434.653,136.11 434.5,133.5C 435.376,132.749 436.376,132.249 437.5,132C 437.043,131.586 436.709,131.086 436.5,130.5C 441.032,127.742 445.365,124.742 449.5,121.5C 452.887,120.816 455.887,119.482 458.5,117.5 Z"/></g>
<g><path style="opacity:0.745" fill="#4f76f5" d="M 182.5,159.5 C 184.199,159.34 185.866,159.506 187.5,160C 191.936,164.089 196.936,167.423 202.5,170C 209.827,170.596 216.827,172.262 223.5,175C 225.268,185.213 220.935,188.88 210.5,186C 200.021,184.283 190.688,180.116 182.5,173.5C 179.832,171.505 178.165,168.838 177.5,165.5C 178.956,163.285 180.622,161.285 182.5,159.5 Z"/></g>
<g><path style="opacity:0.78" fill="#4f76f5" d="M 200.5,226.5 C 208.174,226.334 215.841,226.5 223.5,227C 225.256,227.202 226.922,227.702 228.5,228.5C 234.76,232.59 240.26,237.59 245,243.5C 247.09,249.709 245.09,253.709 239,255.5C 236.991,254.828 235.158,253.828 233.5,252.5C 225.235,239.783 214.069,236.45 200,242.5C 196.006,246.66 191.84,250.66 187.5,254.5C 185.833,255.833 184.167,255.833 182.5,254.5C 178.177,252.037 176.844,248.537 178.5,244C 183.972,235.681 191.305,229.847 200.5,226.5 Z"/></g>
<g><path style="opacity:0.783" fill="#4f76f5" d="M 317.5,226.5 C 325.174,226.334 332.841,226.5 340.5,227C 347.592,230.293 354.092,234.459 360,239.5C 365.238,246.383 363.904,251.717 356,255.5C 354.276,255.045 352.776,254.212 351.5,253C 342.845,240.61 331.511,236.943 317.5,242C 312.833,246 308.5,250.333 304.5,255C 295.899,254.704 293.399,250.538 297,242.5C 302.171,234.959 309.004,229.626 317.5,226.5 Z"/></g>
<g><path style="opacity:0.75" fill="#4f76f5" d="M 387.5,247.5 C 396.705,249.277 398.871,254.277 394,262.5C 392.642,267.993 393.809,272.827 397.5,277C 400.244,278.744 402.91,280.577 405.5,282.5C 408.207,288.867 406.207,292.867 399.5,294.5C 381.489,286.483 375.489,273.149 381.5,254.5C 383.247,251.866 385.247,249.533 387.5,247.5 Z"/></g>
<g><path style="opacity:0.757" fill="#4f76f5" d="M 145.5,248.5 C 154.447,247.935 159.28,252.268 160,261.5C 161.512,277.976 154.512,288.976 139,294.5C 133.926,291.978 132.426,287.978 134.5,282.5C 136.908,280.302 139.575,278.636 142.5,277.5C 142.36,275.876 143.027,274.71 144.5,274C 144.167,273.667 143.833,273.333 143.5,273C 145.045,271.178 145.712,269.011 145.5,266.5C 145.712,263.989 145.045,261.822 143.5,260C 143.833,259.667 144.167,259.333 144.5,259C 143.196,258.196 142.529,257.029 142.5,255.5C 143.251,253.004 144.251,250.67 145.5,248.5 Z"/></g>
<g><path style="opacity:0.006" fill="#4f76f5" d="M 371.5,394.5 C 373.465,394.948 373.798,395.948 372.5,397.5C 371.614,396.675 371.281,395.675 371.5,394.5 Z"/></g>
</svg>
