<?xml version="1.0" encoding="UTF-8"?>
<!DOCTYPE svg PUBLIC "-//W3C//DTD SVG 1.1//EN" "http://www.w3.org/Graphics/SVG/1.1/DTD/svg11.dtd">
<svg xmlns="http://www.w3.org/2000/svg" version="1.1" width="2109px" height="441px" style="shape-rendering:geometricPrecision; text-rendering:geometricPrecision; image-rendering:optimizeQuality; fill-rule:evenodd; clip-rule:evenodd" xmlns:xlink="http://www.w3.org/1999/xlink">
<g><path style="opacity:0.731" fill="#f4ca4e" d="M 1504.5,3.5 C 1507.42,3.14591 1509.75,4.14591 1511.5,6.5C 1513.01,16.9618 1512.68,27.2951 1510.5,37.5C 1506.02,37.3308 1501.85,36.3308 1498,34.5C 1497.49,26.473 1497.16,18.473 1497,10.5C 1497.22,9.06199 1497.72,7.72865 1498.5,6.5C 1500.6,5.48052 1502.6,4.48052 1504.5,3.5 Z"/></g>
<g><path style="opacity:0.698" fill="#f4ca4e" d="M 1386.5,33.5 C 1390.58,33.3436 1394.58,33.8436 1398.5,35C 1398.17,35.3333 1397.83,35.6667 1397.5,36C 1399.1,37.9347 1400.27,40.1013 1401,42.5C 1402.75,45.7248 1404.91,48.7248 1407.5,51.5C 1407.31,54.9851 1407.31,58.6518 1407.5,62.5C 1406.5,62.5 1405.5,62.5 1404.5,62.5C 1404.76,63.9778 1404.43,65.3112 1403.5,66.5C 1401.22,65.7868 1398.89,65.2868 1396.5,65C 1397.17,64.6667 1397.83,64.3333 1398.5,64C 1396.22,63.5272 1394.22,62.5272 1392.5,61C 1392.83,60.6667 1393.17,60.3333 1393.5,60C 1389.75,54.4823 1386.42,49.1489 1383.5,44C 1384.57,42.7496 1384.57,41.4162 1383.5,40C 1384.38,37.7473 1385.38,35.5806 1386.5,33.5 Z"/></g>
<g><path style="opacity:0.691" fill="#f4ca4e" d="M 1611.5,33.5 C 1615.01,33.7121 1618.35,33.7121 1621.5,33.5C 1622.71,34.2739 1622.71,35.1072 1621.5,36C 1624.31,37.3051 1625.14,39.4718 1624,42.5C 1619.8,50.6899 1615.97,58.1899 1612.5,65C 1609.78,65.2695 1607.11,65.7695 1604.5,66.5C 1602.51,65.7112 1602.18,64.5445 1603.5,63C 1602.55,62.5172 1601.55,62.3505 1600.5,62.5C 1600.36,58.6255 1600.69,54.7921 1601.5,51C 1604.37,45.2019 1607.7,39.3685 1611.5,33.5 Z"/></g>
<g><path style="opacity:0.785" fill="#f4ca4e" d="M 1586.5,80.5 C 1587.21,81.404 1588.21,81.7373 1589.5,81.5C 1589.5,82.5 1589.5,83.5 1589.5,84.5C 1592.52,84.3419 1594.52,85.6752 1595.5,88.5C 1594.17,88.8333 1594.17,89.1667 1595.5,89.5C 1599.84,93.36 1603.01,98.0266 1605,103.5C 1605.33,103.167 1605.67,102.833 1606,102.5C 1606.13,105.003 1607.13,107.003 1609,108.5C 1608.04,115.184 1610.54,119.851 1616.5,122.5C 1618.48,121.812 1620.48,122.145 1622.5,123.5C 1622.29,124.086 1621.96,124.586 1621.5,125C 1625.51,126.494 1629.18,128.661 1632.5,131.5C 1635.85,135.522 1639.18,139.522 1642.5,143.5C 1649.58,156.039 1652.25,169.705 1650.5,184.5C 1652.1,184.312 1653.44,184.812 1654.5,186C 1654.17,186.333 1653.83,186.667 1653.5,187C 1653.8,188.655 1655.14,189.988 1657.5,191C 1656.35,191.914 1656.51,192.747 1658,193.5C 1658.33,193.167 1658.67,192.833 1659,192.5C 1659.57,194.492 1660.74,195.992 1662.5,197C 1661.83,197.333 1661.17,197.667 1660.5,198C 1664.82,200.118 1666.82,203.618 1666.5,208.5C 1667.55,208.351 1668.55,208.517 1669.5,209C 1671.3,216.567 1674.14,224.067 1678,231.5C 1678.72,233.112 1678.55,234.612 1677.5,236C 1678.7,236.903 1679.53,238.069 1680,239.5C 1680.67,254.833 1680.67,270.167 1680,285.5C 1676.44,294.388 1673.27,303.054 1670.5,311.5C 1667.38,314.479 1665.38,318.146 1664.5,322.5C 1656.77,332.092 1648.1,341.592 1638.5,351C 1633.36,355.075 1627.7,358.408 1621.5,361C 1621.83,361.333 1622.17,361.667 1622.5,362C 1620.65,363.128 1618.65,363.628 1616.5,363.5C 1614.23,372.682 1611.4,381.682 1608,390.5C 1607.67,390.167 1607.33,389.833 1607,389.5C 1606,391.833 1605,394.167 1604,396.5C 1598.32,403.34 1592.49,410.007 1586.5,416.5C 1585.91,416.291 1585.41,415.957 1585,415.5C 1582.79,417.673 1580.46,419.673 1578,421.5C 1574.17,422.857 1570.67,424.69 1567.5,427C 1564.31,427.001 1561.48,427.834 1559,429.5C 1558.67,429.167 1558.33,428.833 1558,428.5C 1555.83,430.121 1553.33,430.955 1550.5,431C 1550.83,431.333 1551.17,431.667 1551.5,432C 1542.17,432.667 1532.83,432.667 1523.5,432C 1517.26,430.295 1510.93,428.795 1504.5,427.5C 1502.5,427.667 1500.5,427.833 1498.5,428C 1498.83,428.333 1499.17,428.667 1499.5,429C 1494.92,430.145 1490.25,430.811 1485.5,431C 1485.83,431.333 1486.17,431.667 1486.5,432C 1478.5,432.667 1470.5,432.667 1462.5,432C 1456.05,429.793 1449.38,428.127 1442.5,427C 1440.49,425.322 1438.32,423.822 1436,422.5C 1434.47,421.305 1432.97,421.305 1431.5,422.5C 1431.06,421.302 1430.73,420.135 1430.5,419C 1426.58,417.031 1422.91,414.698 1419.5,412C 1419.83,411.667 1420.17,411.333 1420.5,411C 1417.96,409.641 1415.63,407.974 1413.5,406C 1413.83,405.667 1414.17,405.333 1414.5,405C 1407.78,399.214 1403.44,392.047 1401.5,383.5C 1400.5,383.5 1399.5,383.5 1398.5,383.5C 1398.78,378.128 1397.45,372.962 1394.5,368C 1395.15,366.56 1395.48,365.06 1395.5,363.5C 1391.91,363.081 1388.58,361.914 1385.5,360C 1383.8,357.018 1381.14,355.684 1377.5,356C 1377.83,355.667 1378.17,355.333 1378.5,355C 1377.38,353.956 1376.04,353.29 1374.5,353C 1375.65,352.086 1375.49,351.253 1374,350.5C 1373.09,351.654 1372.25,351.487 1371.5,350C 1366.19,345.385 1361.02,339.885 1356,333.5C 1355.11,334.711 1354.27,334.711 1353.5,333.5C 1352.95,330.221 1351.28,327.721 1348.5,326C 1348.83,325.667 1349.17,325.333 1349.5,325C 1347.95,323.903 1346.61,322.57 1345.5,321C 1345.83,320.667 1346.17,320.333 1346.5,320C 1344.87,316.452 1342.54,313.452 1339.5,311C 1340.46,309.853 1340.12,308.853 1338.5,308C 1338.96,307.586 1339.29,307.086 1339.5,306.5C 1336.64,299.916 1333.97,293.249 1331.5,286.5C 1332.23,283.018 1331.9,279.518 1330.5,276C 1330.89,271.207 1330.89,266.207 1330.5,261C 1330.73,251.486 1331.23,241.986 1332,232.5C 1334.12,228.812 1336.12,225.146 1338,221.5C 1338.33,218.494 1339.17,215.66 1340.5,213C 1340.04,212.586 1339.71,212.086 1339.5,211.5C 1340.5,210.833 1341.5,210.167 1342.5,209.5C 1343.81,205.028 1346.14,201.195 1349.5,198C 1349.04,197.586 1348.71,197.086 1348.5,196.5C 1352.17,192.5 1355.83,188.5 1359.5,184.5C 1360.05,172.939 1361.21,161.939 1363,151.5C 1363.67,152.167 1364.33,152.833 1365,153.5C 1365.64,150.441 1366.48,147.441 1367.5,144.5C 1375.04,133.138 1385.38,125.305 1398.5,121C 1398.17,120.667 1397.83,120.333 1397.5,120C 1398.5,119.5 1399.5,119 1400.5,118.5C 1401.21,112.945 1402.88,107.779 1405.5,103C 1405.04,102.586 1404.71,102.086 1404.5,101.5C 1405.69,100.147 1407.02,98.9803 1408.5,98C 1408.17,97.6667 1407.83,97.3333 1407.5,97C 1412.24,92.3196 1416.57,87.9863 1420.5,84C 1420.17,83.6667 1419.83,83.3333 1419.5,83C 1424.19,81.2607 1428.52,78.9273 1432.5,76C 1440.2,73.3478 1448.2,71.8478 1456.5,71.5C 1467.43,72.0094 1477.76,74.6761 1487.5,79.5C 1489.33,82.0237 1491.66,83.8571 1494.5,85C 1496.86,88.3049 1499.69,91.8049 1503,95.5C 1503.48,96.448 1503.65,97.448 1503.5,98.5C 1504.87,98.6567 1506.21,98.49 1507.5,98C 1507.04,97.586 1506.71,97.086 1506.5,96.5C 1508.32,95.1851 1509.98,93.6851 1511.5,92C 1511.17,91.6667 1510.83,91.3333 1510.5,91C 1512.53,88.2134 1514.86,86.5468 1517.5,86C 1517.17,85.6667 1516.83,85.3333 1516.5,85C 1517.5,84.6667 1518.5,84.3333 1519.5,84C 1518.17,83.3333 1518.17,82.6667 1519.5,82C 1525.67,79.2739 1531.67,76.4406 1537.5,73.5C 1547.38,71.7683 1557.22,71.1016 1567,71.5C 1571.12,74.1403 1575.29,76.307 1579.5,78C 1581.57,78.6869 1583.57,78.5202 1585.5,77.5C 1586.29,78.3554 1585.96,79.1887 1584.5,80C 1585.09,80.4643 1585.76,80.631 1586.5,80.5 Z M 1446.5,86.5 C 1471.46,83.3276 1488.63,93.3276 1498,116.5C 1498.83,123.524 1498.66,130.524 1497.5,137.5C 1486.86,128.472 1474.02,123.139 1459,121.5C 1449.45,121.84 1447.28,125.84 1452.5,133.5C 1453.94,134.304 1455.44,134.971 1457,135.5C 1476.03,136.098 1489.7,145.098 1498,162.5C 1498.5,224.832 1498.67,287.166 1498.5,349.5C 1483.67,348.05 1471.84,340.716 1463,327.5C 1461.28,324.732 1460.12,321.732 1459.5,318.5C 1459.58,316.701 1460.08,315.034 1461,313.5C 1465.2,310.253 1467.54,305.92 1468,300.5C 1469.06,295.745 1467.56,292.079 1463.5,289.5C 1461.46,290.041 1459.46,290.708 1457.5,291.5C 1455.33,296.193 1453.16,300.859 1451,305.5C 1449.92,307.394 1448.59,307.727 1447,306.5C 1446.52,307.448 1446.35,308.448 1446.5,309.5C 1441.11,310.629 1435.94,309.963 1431,307.5C 1425.42,309.331 1423.58,312.998 1425.5,318.5C 1427.13,320.297 1429.13,321.464 1431.5,322C 1436.2,322.172 1440.87,322.672 1445.5,323.5C 1455.92,345.902 1473.25,359.902 1497.5,365.5C 1498.83,381.5 1498.83,397.5 1497.5,413.5C 1496.69,413.808 1496.03,414.308 1495.5,415C 1467.59,422.882 1443.76,416.382 1424,395.5C 1421.73,391.234 1419.07,387.234 1416,383.5C 1414.18,378.708 1412.35,373.875 1410.5,369C 1409.81,360.767 1408.65,352.6 1407,344.5C 1404.68,340.885 1401.51,339.885 1397.5,341.5C 1396.05,342.85 1395.38,344.516 1395.5,346.5C 1393.94,346.481 1392.44,346.148 1391,345.5C 1356.49,322.351 1341.15,289.351 1345,246.5C 1347.66,229.549 1354.66,213.883 1366,199.5C 1369.67,204.666 1373.51,209.666 1377.5,214.5C 1385.6,217.291 1389.26,214.624 1388.5,206.5C 1370.24,185.45 1369.91,164.283 1387.5,143C 1390.81,140.189 1394.47,138.022 1398.5,136.5C 1399.44,136.608 1400.28,136.941 1401,137.5C 1401.93,142.313 1403.09,146.98 1404.5,151.5C 1407.22,151.534 1409.22,152.201 1410.5,153.5C 1413.04,153.131 1414.87,151.797 1416,149.5C 1416.02,142.171 1415.19,135.004 1413.5,128C 1415.17,106.523 1426.17,92.69 1446.5,86.5 Z M 1544.5,86.5 C 1551.51,86.3337 1558.51,86.5004 1565.5,87C 1585.96,94.0146 1596.63,108.515 1597.5,130.5C 1595.46,148.094 1586.46,160.594 1570.5,168C 1563.6,168.782 1556.94,170.282 1550.5,172.5C 1547.45,176.976 1548.11,180.81 1552.5,184C 1564.9,184.636 1576.23,181.469 1586.5,174.5C 1592.94,169.376 1598.44,164.042 1603,158.5C 1606.43,150.994 1609.26,143.328 1611.5,135.5C 1625.14,141.911 1632.97,152.577 1635,167.5C 1635.33,167.167 1635.67,166.833 1636,166.5C 1637.3,180.313 1633.8,192.646 1625.5,203.5C 1624.68,204.386 1623.68,204.719 1622.5,204.5C 1620.85,213.852 1624.52,217.186 1633.5,214.5C 1637.19,210.281 1640.53,205.781 1643.5,201C 1644.5,200.333 1645.5,200.333 1646.5,201C 1666.2,227.953 1671.7,257.786 1663,290.5C 1656.99,307.099 1647.82,321.599 1635.5,334C 1632.12,336.395 1628.79,338.729 1625.5,341C 1625.83,341.333 1626.17,341.667 1626.5,342C 1623.29,342.395 1620.79,343.895 1619,346.5C 1616.6,344.82 1615.44,342.486 1615.5,339.5C 1613.41,338.758 1611.24,338.091 1609,337.5C 1607.28,337.748 1605.78,338.415 1604.5,339.5C 1603.91,354.964 1600.74,369.631 1595,383.5C 1581.98,405.5 1562.65,417.167 1537,418.5C 1530.33,417.149 1523.5,416.315 1516.5,416C 1515.65,414.978 1514.65,414.145 1513.5,413.5C 1512.5,396.847 1512.17,380.18 1512.5,363.5C 1530.29,361.638 1544.62,353.638 1555.5,339.5C 1558.36,334.91 1561.02,330.244 1563.5,325.5C 1568.66,323.052 1574.16,321.718 1580,321.5C 1587.52,316.259 1587.19,311.592 1579,307.5C 1574.74,309.919 1570.24,310.586 1565.5,309.5C 1562.6,307.59 1559.76,305.59 1557,303.5C 1557.02,298.892 1555.52,294.892 1552.5,291.5C 1546.43,289.255 1542.77,291.255 1541.5,297.5C 1542.29,305.055 1545.46,311.388 1551,316.5C 1551.52,318.289 1551.19,319.956 1550,321.5C 1542.25,336.889 1529.92,346.556 1513,350.5C 1512.33,288.833 1512.33,227.167 1513,165.5C 1514.55,160.727 1516.39,156.06 1518.5,151.5C 1519.68,151.719 1520.68,151.386 1521.5,150.5C 1524.35,146.813 1527.69,143.647 1531.5,141C 1540.59,137.418 1549.93,134.918 1559.5,133.5C 1560.76,130.156 1560.76,126.823 1559.5,123.5C 1557.56,122.149 1555.39,121.482 1553,121.5C 1538.06,122.609 1524.89,127.942 1513.5,137.5C 1509.86,120.959 1514.2,107.126 1526.5,96C 1529.37,95.1392 1531.7,93.4725 1533.5,91C 1537.15,89.1191 1540.81,87.6191 1544.5,86.5 Z"/></g>
<g><path style="opacity:0.932" fill="#fefffe" d="M 759.5,79.5 C 760.376,79.3691 761.043,79.7025 761.5,80.5C 759.573,88.3771 757.573,96.2105 755.5,104C 721.845,113.773 689.178,126.106 657.5,141C 656.5,141.667 655.5,141.667 654.5,141C 655.789,133.105 657.456,125.271 659.5,117.5C 691.849,101.982 725.182,89.3152 759.5,79.5 Z"/></g>
<g><path style="opacity:0.008" fill="#f4ca4e" d="M 1586.5,79.5 C 1587.83,80.1667 1587.83,80.1667 1586.5,79.5 Z"/></g>
<g><path style="opacity:0.004" fill="#f4ca4e" d="M 1595.5,88.5 C 1596.83,89.1667 1596.83,89.1667 1595.5,88.5 Z"/></g>
<g><path style="opacity:0.011" fill="#f4ca4e" d="M 1615.5,107.5 C 1618.67,107.952 1619.01,108.952 1616.5,110.5C 1615.61,109.675 1615.28,108.675 1615.5,107.5 Z"/></g>
<g><path style="opacity:0.685" fill="#f4ca4e" d="M 1310.5,115.5 C 1318.06,118.95 1325.39,122.95 1332.5,127.5C 1335.19,137.316 1331.52,141.149 1321.5,139C 1318,136.501 1314.17,134.668 1310,133.5C 1302.27,128.674 1300.77,123.174 1305.5,117C 1307.38,116.802 1309.05,116.302 1310.5,115.5 Z"/></g>
<g><path style="opacity:0.684" fill="#f4ca4e" d="M 1696.5,115.5 C 1697.8,116.807 1699.13,116.807 1700.5,115.5C 1701.7,117.297 1703.36,118.297 1705.5,118.5C 1705.66,121.518 1705.5,124.518 1705,127.5C 1702.69,128.641 1700.86,130.308 1699.5,132.5C 1694.62,133.607 1690.29,135.774 1686.5,139C 1683.12,139.824 1679.78,139.657 1676.5,138.5C 1673.99,136.443 1672.65,134.11 1672.5,131.5C 1673.38,130.749 1674.38,130.249 1675.5,130C 1675.04,129.586 1674.71,129.086 1674.5,128.5C 1679.03,125.742 1683.37,122.742 1687.5,119.5C 1690.89,118.816 1693.89,117.482 1696.5,115.5 Z"/></g>
<g><path style="opacity:0.967" fill="#fefffe" d="M 406.5,124.5 C 407.5,124.5 408.5,124.5 409.5,124.5C 411.452,165.474 413.286,206.474 415,247.5C 415.372,261.197 422.206,269.364 435.5,272C 457.332,275.267 469.999,266.101 473.5,244.5C 481.321,243.676 489.154,243.009 497,242.5C 498.5,242.833 500,243.167 501.5,243.5C 497.87,252.485 497.704,261.485 501,270.5C 507.607,275.583 514.44,275.75 521.5,271C 527.271,263.858 530.605,255.692 531.5,246.5C 540.524,246.642 549.524,246.308 558.5,245.5C 557.585,252.815 557.418,260.148 558,267.5C 560.543,273.47 565.043,275.637 571.5,274C 576.91,272.257 580.744,268.757 583,263.5C 586.627,255.197 588.794,246.53 589.5,237.5C 598.135,236.503 606.802,235.836 615.5,235.5C 615.759,239.24 615.426,242.906 614.5,246.5C 614.646,253.346 616.479,259.68 620,265.5C 623.762,269.13 628.262,271.297 633.5,272C 648.587,273.03 663.587,272.363 678.5,270C 692.178,268.029 695.011,261.529 687,250.5C 674.963,235.462 661.296,222.129 646,210.5C 646.013,197.057 647.346,183.724 650,170.5C 652.592,167.238 655.759,164.738 659.5,163C 692.23,146.706 726.23,134.539 761.5,126.5C 758.199,139.038 755.532,151.705 753.5,164.5C 725.87,170.987 699.204,180.154 673.5,192C 684.632,200.798 694.798,210.631 704,221.5C 716.167,236.333 728.333,251.167 740.5,266C 744.935,269.368 749.935,271.368 755.5,272C 764.833,272.667 774.167,272.667 783.5,272C 788.569,271.691 793.402,270.524 798,268.5C 798.417,259.157 796.75,250.157 793,241.5C 788.559,231.451 783.725,221.618 778.5,212C 778.905,211.055 779.572,210.388 780.5,210C 790.144,206.561 799.811,203.561 809.5,201C 826.215,230.237 831.715,261.404 826,294.5C 823.859,300.641 819.693,304.807 813.5,307C 804.76,310.148 795.76,312.148 786.5,313C 773.5,313.667 760.5,313.667 747.5,313C 740.58,311.706 734.247,309.04 728.5,305C 722.291,298.959 716.291,292.792 710.5,286.5C 704.873,299.955 694.873,308.121 680.5,311C 676.531,311.853 672.531,312.519 668.5,313C 654.833,313.667 641.167,313.667 627.5,313C 615.289,310.899 606.289,304.399 600.5,293.5C 588.396,312.147 571.73,317.98 550.5,311C 545.25,307.585 541.25,303.085 538.5,297.5C 524.531,314.361 507.531,318.195 487.5,309C 483.546,305.883 480.546,302.05 478.5,297.5C 472.283,304.535 464.616,309.368 455.5,312C 410.535,320.973 386.368,302.807 383,257.5C 381.239,216.83 379.406,176.163 377.5,135.5C 377.833,132.833 378.167,130.167 378.5,127.5C 387.968,126.59 397.302,125.59 406.5,124.5 Z"/></g>
<g><path style="opacity:0.967" fill="#fefffe" d="M 883.5,124.5 C 884.5,124.5 885.5,124.5 886.5,124.5C 889.167,187.5 891.833,250.5 894.5,313.5C 883.5,313.5 872.5,313.5 861.5,313.5C 859.458,254.991 857.125,196.491 854.5,138C 854.833,134.5 855.167,131 855.5,127.5C 864.96,126.495 874.293,125.495 883.5,124.5 Z"/></g>
<g><path style="opacity:0.943" fill="#fefffe" d="M 529.5,131.5 C 549.115,130.288 556.615,139.288 552,158.5C 546.947,168.058 539.113,171.225 528.5,168C 524.725,166.558 521.892,164.058 520,160.5C 518.473,154.585 518.139,148.585 519,142.5C 521.02,137.315 524.52,133.648 529.5,131.5 Z"/></g>
<g><path style="opacity:0.942" fill="#fefffe" d="M 776.5,138.5 C 796.291,136.795 804.458,145.795 801,165.5C 795.383,176.603 786.549,180.103 774.5,176C 764.589,169.191 761.756,160.024 766,148.5C 768.106,143.557 771.606,140.224 776.5,138.5 Z"/></g>
<g><path style="opacity:0.745" fill="#f4ca4e" d="M 1420.5,157.5 C 1422.2,157.34 1423.87,157.506 1425.5,158C 1429.94,162.089 1434.94,165.423 1440.5,168C 1447.83,168.596 1454.83,170.262 1461.5,173C 1463.27,183.213 1458.93,186.88 1448.5,184C 1438.02,182.283 1428.69,178.116 1420.5,171.5C 1417.83,169.505 1416.17,166.838 1415.5,163.5C 1416.96,161.285 1418.62,159.285 1420.5,157.5 Z"/></g>
<g><path style="opacity:0.948" fill="#fefffe" d="M 508.5,169.5 C 526.802,168.643 534.302,177.31 531,195.5C 527.969,203.192 522.302,206.859 514,206.5C 505.698,206.859 500.031,203.192 497,195.5C 493.839,183.412 497.673,174.745 508.5,169.5 Z"/></g>
<g><path style="opacity:0.944" fill="#fefffe" d="M 550.5,169.5 C 570.115,168.288 577.615,177.288 573,196.5C 568.243,205.788 560.743,208.954 550.5,206C 546.291,204.813 543.124,202.313 541,198.5C 536.413,186.004 539.58,176.338 550.5,169.5 Z"/></g>
<g><path style="opacity:0.965" fill="#fefffe" d="M 986.5,200.5 C 1010.69,199.184 1027.19,209.85 1036,232.5C 1047.93,269.019 1043.93,303.686 1024,336.5C 998.737,370.943 966.237,380.11 926.5,364C 922.542,361.766 919.042,358.933 916,355.5C 916.869,346.655 918.703,337.988 921.5,329.5C 946.591,340.408 970.591,338.575 993.5,324C 1000.86,317.93 1006.53,310.597 1010.5,302C 989.522,304.476 971.689,298.309 957,283.5C 948.133,270.504 945.133,256.171 948,240.5C 952.605,219.064 965.438,205.731 986.5,200.5 Z M 982.5,232.5 C 994.18,231.09 1003.01,235.424 1009,245.5C 1011.86,250.904 1014.02,256.571 1015.5,262.5C 1003.42,265.901 991.751,264.734 980.5,259C 973.267,253.033 971.767,245.867 976,237.5C 977.965,235.45 980.132,233.783 982.5,232.5 Z"/></g>
<g><path style="opacity:0.959" fill="#fefffe" d="M 1133.5,207.5 C 1134.98,207.238 1136.31,207.571 1137.5,208.5C 1154.61,238.591 1162.44,270.924 1161,305.5C 1156.18,335.012 1140.34,356.179 1113.5,369C 1096.37,374.754 1080.04,373.087 1064.5,364C 1061.33,362.167 1058.83,359.667 1057,356.5C 1057.37,347.1 1058.53,337.767 1060.5,328.5C 1091.94,343.743 1115.44,335.743 1131,304.5C 1133.21,294.992 1132.54,285.659 1129,276.5C 1122.82,257.471 1114.99,239.138 1105.5,221.5C 1114.89,216.803 1124.23,212.136 1133.5,207.5 Z"/></g>
<g><path style="opacity:0.78" fill="#f4ca4e" d="M 1438.5,224.5 C 1446.17,224.334 1453.84,224.5 1461.5,225C 1463.26,225.202 1464.92,225.702 1466.5,226.5C 1472.76,230.59 1478.26,235.59 1483,241.5C 1485.09,247.709 1483.09,251.709 1477,253.5C 1474.99,252.828 1473.16,251.828 1471.5,250.5C 1463.24,237.783 1452.07,234.45 1438,240.5C 1434.01,244.66 1429.84,248.66 1425.5,252.5C 1423.83,253.833 1422.17,253.833 1420.5,252.5C 1416.18,250.037 1414.84,246.537 1416.5,242C 1421.97,233.681 1429.31,227.847 1438.5,224.5 Z"/></g>
<g><path style="opacity:0.783" fill="#f4ca4e" d="M 1555.5,224.5 C 1563.17,224.334 1570.84,224.5 1578.5,225C 1585.59,228.293 1592.09,232.459 1598,237.5C 1603.24,244.383 1601.9,249.717 1594,253.5C 1592.28,253.045 1590.78,252.212 1589.5,251C 1580.84,238.61 1569.51,234.943 1555.5,240C 1550.83,244 1546.5,248.333 1542.5,253C 1533.9,252.704 1531.4,248.538 1535,240.5C 1540.17,232.959 1547,227.626 1555.5,224.5 Z"/></g>
<g><path style="opacity:0.75" fill="#f4ca4e" d="M 1625.5,245.5 C 1634.7,247.277 1636.87,252.277 1632,260.5C 1630.64,265.993 1631.81,270.827 1635.5,275C 1638.24,276.744 1640.91,278.577 1643.5,280.5C 1646.21,286.867 1644.21,290.867 1637.5,292.5C 1619.49,284.483 1613.49,271.149 1619.5,252.5C 1621.25,249.866 1623.25,247.533 1625.5,245.5 Z"/></g>
<g><path style="opacity:0.757" fill="#f4ca4e" d="M 1383.5,246.5 C 1392.45,245.935 1397.28,250.268 1398,259.5C 1399.51,275.976 1392.51,286.976 1377,292.5C 1371.93,289.978 1370.43,285.978 1372.5,280.5C 1374.91,278.302 1377.57,276.636 1380.5,275.5C 1380.36,273.876 1381.03,272.71 1382.5,272C 1382.17,271.667 1381.83,271.333 1381.5,271C 1383.05,269.178 1383.71,267.011 1383.5,264.5C 1383.71,261.989 1383.05,259.822 1381.5,258C 1381.83,257.667 1382.17,257.333 1382.5,257C 1381.2,256.196 1380.53,255.029 1380.5,253.5C 1381.25,251.004 1382.25,248.67 1383.5,246.5 Z"/></g>
<g><path style="opacity:0.006" fill="#f4ca4e" d="M 1609.5,392.5 C 1611.46,392.948 1611.8,393.948 1610.5,395.5C 1609.61,394.675 1609.28,393.675 1609.5,392.5 Z"/></g>
</svg>
